<?xml version="1.0" encoding="UTF-8"?>
<svg id="Layer_1" data-name="Layer 1" xmlns="http://www.w3.org/2000/svg" version="1.1" viewBox="0 0 1200 360">
  <defs>
    <style>
      .cls-1 {
        fill: #ff6418;
      }

      .cls-1, .cls-2 {
        stroke-width: 0px;
      }

      .cls-2 {
        fill: #fff;
      }
    </style>
  </defs>
  <path class="cls-1" d="M180.84,148.58V61.29c0-9.32-1.82-15.4-5.55-18.6-3.63-3.12-8.1-4.7-13.28-4.7-7.29,0-14.47,2.2-21.34,6.54-4.58,2.91-8.79,6.47-12.5,10.6l-.27.3v.4c.08,2.12.11,4,.11,5.75v87h-36.94V61.29c0-9.33-1.87-15.41-5.71-18.61-3.73-3.11-8.25-4.69-13.42-4.69-7.29,0-14.47,2.2-21.34,6.54-4.53,2.87-8.7,6.4-12.4,10.48l-.26.29v93.25H1V5.19h27.38l5.31,18.5,1.19-1.06c2.57-2.3,4.97-4.27,7.34-6.03,6.06-4.5,12.73-8.1,19.82-10.72,7.09-2.62,14.63-3.95,22.39-3.95,9.7,0,17.53,1.66,23.29,4.92,5.75,3.27,10.07,7.73,12.83,13.26.49.98.93,2.02,1.36,3.03l.61,1.45,1.05-.95c2.82-2.57,5.7-4.94,8.57-7.03,6.15-4.5,12.87-8.1,19.97-10.72,7.09-2.62,14.63-3.95,22.39-3.95,9.49,0,17.22,1.66,22.99,4.92,5.76,3.27,10.13,7.74,12.98,13.27,2.91,5.62,4.92,12.07,5.99,19.16,1.07,7.19,1.62,14.69,1.62,22.29v87h-37.24Z"/>
  <path class="cls-1" d="M307.68,152.13c-14.83,0-28.01-3.21-39.2-9.53-11.19-6.32-20.01-15.19-26.23-26.37-6.23-11.2-9.38-24.39-9.38-39.2s3.16-28,9.38-39.19c6.22-11.18,15.04-20.06,26.23-26.38,11.19-6.32,24.38-9.53,39.2-9.53s28,3.21,39.2,9.53c11.17,6.32,19.99,15.19,26.23,26.38,6.23,11.2,9.38,24.38,9.38,39.19s-3.16,28.02-9.38,39.2c-6.23,11.18-15.06,20.05-26.23,26.37-11.19,6.32-24.38,9.53-39.2,9.53ZM307.67,34.42c-11.75,0-21.41,3.93-28.74,11.68-7.29,7.73-10.99,18.03-10.99,30.62s3.7,22.94,10.99,30.77c7.31,7.86,16.98,11.85,28.74,11.85s21.47-3.98,28.9-11.84c7.51-7.95,11.16-17.91,11.16-30.46s-3.76-22.93-11.16-30.78c-7.42-7.86-17.14-11.84-28.9-11.84Z"/>
  <polygon class="cls-1" points="437.29 148.56 382.17 5.21 421.02 5.21 455.1 104.8 487.85 5.21 525.83 5.21 473.35 148.56 437.29 148.56"/>
  <path class="cls-1" d="M598,151.56c-14.21,0-26.85-3.11-37.55-9.24-10.7-6.13-19.07-14.85-24.88-25.91-5.84-11.1-8.81-24.34-8.81-39.37s2.96-28.02,8.81-39.22c5.84-11.18,14.21-20.05,24.89-26.36,10.84-6.41,23.12-9.52,37.54-9.52s26.9,3.2,37.44,9.52l.25.16c10.58,6.41,18.91,15.33,24.75,26.51,5.84,11.2,8.81,24.19,8.81,38.63,0,2.16-.05,4.29-.15,6.34-.08,1.63-.25,3.05-.52,4.25h-107.14l.08,1.08c.77,9.79,4.15,17.75,10.07,23.67,6.8,6.8,16.19,10.25,27.91,10.25,10.27,0,18.47-2.16,24.37-6.43,5.58-4.04,10.47-9.07,14.58-14.95l25.4,14.52c-6.37,11.44-15.03,20.37-25.76,26.54-10.99,6.32-24.48,9.53-40.08,9.53ZM597.99,30.54c-10.93,0-19.87,3.45-26.57,10.26-4.77,4.85-7.88,10.98-9.25,18.21l-.22,1.19h71.77l-.28-1.23c-1.46-6.31-3.96-11.83-7.44-16.43-5.96-7.86-15.23-11.89-27.57-11.99h-.44Z"/>
  <path class="cls-1" d="M715.62,150.94c-4.31,0-8.36-1.09-12.04-3.23-3.71-2.15-6.72-5.11-8.95-8.81-2.23-3.7-3.37-7.74-3.37-12.02,0-4.64,1.13-8.82,3.36-12.41,2.23-3.61,5.25-6.54,8.95-8.69,3.71-2.15,7.76-3.23,12.04-3.23,4.64,0,8.82,1.09,12.43,3.23,3.61,2.15,6.58,5.08,8.83,8.7,2.22,3.61,3.35,7.78,3.35,12.41,0,4.29-1.13,8.33-3.36,12.02-2.25,3.71-5.22,6.67-8.83,8.82-3.59,2.14-7.77,3.23-12.43,3.23Z"/>
  <path class="cls-1" d="M715.62,50.71c-4.31,0-8.36-1.09-12.04-3.23-3.71-2.15-6.72-5.11-8.95-8.81-2.23-3.7-3.37-7.74-3.37-12.02,0-4.64,1.13-8.82,3.36-12.41,2.23-3.61,5.25-6.54,8.95-8.69,3.71-2.15,7.76-3.23,12.04-3.23,4.64,0,8.82,1.09,12.43,3.23,3.61,2.15,6.58,5.08,8.83,8.7,2.22,3.61,3.35,7.78,3.35,12.41,0,4.29-1.13,8.33-3.36,12.02-2.25,3.71-5.22,6.67-8.83,8.82-3.59,2.14-7.77,3.23-12.43,3.23Z"/>
  <path class="cls-2" d="M283.59,355.58c-13.99,0-26.4-3.05-36.89-9.06-10.47-6-18.68-14.55-24.39-25.4-5.74-10.91-8.65-23.94-8.65-38.74s2.91-27.59,8.65-38.59c5.72-10.96,13.93-19.65,24.4-25.84,10.64-6.29,22.7-9.34,36.87-9.34s26.32,3.11,36.62,9.25l.37.23c10.4,6.3,18.57,15.05,24.29,26.01,5.74,11.02,8.65,23.81,8.65,38.01,0,2.14-.05,4.24-.15,6.26-.06,1.22-.17,2.32-.34,3.28h-106.95l.17,2.16c.78,9.99,4.26,18.14,10.32,24.2,6.96,6.97,16.55,10.51,28.5,10.51,10.43,0,18.79-2.22,24.85-6.6,5.41-3.92,10.19-8.75,14.22-14.37l23.63,13.5c-6.21,10.83-14.54,19.31-24.78,25.19-10.79,6.21-24.06,9.35-39.41,9.35ZM283.59,235.08c-11.16,0-20.3,3.54-27.17,10.52-4.89,4.98-8.08,11.25-9.49,18.65l-.45,2.37h73.95l-.56-2.45c-1.48-6.42-4.03-12.06-7.58-16.75-5.88-7.75-14.85-11.88-26.69-12.3v-.02l-.99-.02h-1.01Z"/>
  <path class="cls-2" d="M505.67,356.04c-14.06,0-26.55-3.07-37.11-9.12-10.53-6.02-18.78-14.62-24.52-25.54-5.77-10.97-8.7-24.08-8.7-38.96s2.93-27.74,8.7-38.81c5.75-11.02,14.01-19.77,24.54-25.99,10.71-6.32,22.84-9.39,37.08-9.39s26.77,3.21,37.21,9.53l.48.29c10.23,6.31,18.28,15.01,23.94,25.86,5.77,11.08,8.7,23.93,8.7,38.22,0,2.15-.05,4.28-.15,6.3-.06,1.25-.17,2.35-.34,3.31h-107.54l.17,2.16c.79,10.05,4.27,18.23,10.37,24.33,6.99,7,16.63,10.56,28.64,10.56,10.5,0,18.91-2.23,24.98-6.63,5.43-3.94,10.24-8.8,14.3-14.46l23.79,13.59c-6.25,10.9-14.63,19.42-24.93,25.34-10.84,6.25-24.17,9.41-39.63,9.41ZM505.68,234.88c-11.21,0-20.41,3.56-27.32,10.57-4.93,5-8.14,11.31-9.54,18.74l-.45,2.37h74.32l-.57-2.45c-1.49-6.45-4.06-12.11-7.62-16.83-6.22-8.23-15.92-12.4-28.82-12.4h0Z"/>
  <polygon class="cls-2" points="633.55 353.04 579.14 211.5 615.87 211.5 650.74 313.35 684.24 211.5 720.11 211.5 668.29 353.04 633.55 353.04"/>
  <path class="cls-2" d="M911.8,355.72c-14.3,0-25.71-3.78-33.92-11.24-8.16-7.4-12.3-19.57-12.3-36.17v-62.8l-.59-34.36,12.06-33.89h23.53v34.23h31.85v32.01h-31.85v58.56c0,6.9,1.76,12.05,5.24,15.3,3.45,3.22,7.86,4.86,13.13,4.86,3.28,0,6.32-.26,9.01-.79,1.56-.3,3.06-.62,4.47-.98v32.29c-2.67.91-5.51,1.62-8.45,2.12-3.46.57-7.56.86-12.17.86Z"/>
  <path class="cls-2" d="M1117.17,353.04v-141.55h25.6l4.31,17.64,2.52-2.61c1.19-1.23,2.3-2.33,3.4-3.36,4.33-4.03,9.39-7.58,15.04-10.55,5.55-2.91,11.4-4.38,17.38-4.38,3.04,0,5.84.19,8.33.57,1.75.27,3.17.68,4.25,1.23v32.29h-7.53c-13.19,0-23.54,2.14-30.77,6.37-2.54,1.48-4.89,3.34-6.98,5.52l-.56.58v98.24h-34.99Z"/>
  <rect class="cls-2" x="377.29" y="178.21" width="36" height="174.69"/>
  <path class="cls-2" d="M1022.66,356.63c-14.66,0-27.7-3.17-38.76-9.42-11.03-6.24-19.74-14.99-25.88-26.02-6.16-11.04-9.28-24.09-9.28-38.77s3.12-27.71,9.28-38.77c6.14-11.03,14.84-19.78,25.88-26.02,11.06-6.24,24.1-9.41,38.76-9.41s27.71,3.17,38.76,9.41c11.03,6.24,19.74,14.99,25.88,26.02,6.16,11.07,9.28,24.11,9.28,38.77s-3.12,27.71-9.28,38.77c-6.14,11.03-14.84,19.78-25.88,26.02-11.07,6.25-24.11,9.42-38.76,9.42ZM1022.65,238.77c-12.05,0-21.98,4.04-29.5,12.01-7.49,7.94-11.29,18.48-11.29,31.34s3.79,23.46,11.28,31.49c7.52,8.08,17.45,12.18,29.51,12.18s22.03-4.09,29.66-12.17c7.7-8.16,11.45-18.36,11.45-31.19s-3.85-23.46-11.44-31.5c-7.63-8.07-17.62-12.17-29.67-12.17Z"/>
  <path class="cls-2" d="M770.45,357.2c-10.37,0-19.58-1.98-27.39-5.89-7.74-3.86-13.77-9.41-17.92-16.48-4.16-7.09-6.27-15.51-6.27-25.03s2.25-17.85,6.69-24.83c4.44-7,10.63-12.52,18.41-16.4,7.82-3.91,16.84-5.89,26.79-5.89,13.5,0,24.63,3.09,33.06,9.2l3.17,2.3v-13.79c0-6.04-2.18-11.5-6.47-16.22-4.37-4.78-11.37-7.21-20.83-7.21-5.65,0-11.99.66-18.83,1.98-4,.77-8.25,1.99-12.67,3.64-2.7-6.82-7.79-19.01-10.28-24.96,5.9-2.37,12.05-4.35,18.3-5.89,9.42-2.33,19.02-3.51,28.54-3.51,12.9,0,23.69,2.32,32.08,6.9,8.32,4.54,14.66,10.88,18.83,18.82,4.19,8.01,6.32,17.31,6.32,27.64v91.46h-27.46l-3.61-11.98-2.36,2.3c-1.75,1.71-3.44,3.15-5.18,4.41-8.65,6.26-19.72,9.44-32.9,9.44ZM781.17,288.17c-7.57,0-13.8,1.9-18.51,5.65-4.78,3.79-7.3,9.32-7.3,15.99s2.45,11.89,7.28,15.84c4.7,3.86,10.93,5.81,18.53,5.81s13.81-1.96,18.53-5.81c4.9-4.01,7.29-9.19,7.29-15.84s-2.46-12.14-7.3-15.99c-4.71-3.75-10.93-5.65-18.51-5.65Z"/>
</svg>