<?xml version="1.0" encoding="utf-8"?>
<!-- Generator: Adobe Illustrator 16.0.3, SVG Export Plug-In . SVG Version: 6.00 Build 0)  -->
<svg version="1.2" baseProfile="tiny" id="Ebene_1" xmlns="http://www.w3.org/2000/svg" xmlns:xlink="http://www.w3.org/1999/xlink"
	 x="0px" y="0px" width="124px" height="84.001px" viewBox="0 100.815 124 84.001" xml:space="preserve">
<path fill="#FFFFFF" d="M37.03,137.302l-0.201,0.003c0.125-0.312,0.234-0.643,0.324-0.997c0-0.002,0-0.004,0.002-0.008
	c0.088-0.348,0.158-0.721,0.217-1.114c0.113-0.772,0.172-1.631,0.172-2.578c0-0.997-0.066-1.896-0.197-2.702
	c-0.055-0.328-0.117-0.643-0.191-0.938c-0.174-0.683-0.416-1.284-0.723-1.808c-0.152-0.262-0.322-0.506-0.508-0.729
	c-0.484-0.574-1.085-1.021-1.806-1.34c-0.113-0.051-0.23-0.099-0.352-0.143c-0.875-0.323-1.932-0.484-3.164-0.484
	c-0.41,0-0.801,0.02-1.17,0.055c-0.746,0.072-1.412,0.214-1.998,0.43c-0.176,0.064-0.344,0.139-0.508,0.217
	c-0.631,0.305-1.166,0.71-1.605,1.22c-0.014,0.016-0.029,0.03-0.043,0.046c-0.068,0.084-0.137,0.17-0.203,0.259
	c-0.285,0.388-0.525,0.829-0.723,1.323c-0.053,0.129-0.1,0.261-0.146,0.396c-0.061,0.18-0.117,0.365-0.168,0.558
	c-0.26,0.999-0.393,2.181-0.398,3.54c0,0.034-0.002,0.066-0.002,0.101c0,1.349,0.131,2.524,0.387,3.53
	c0.01,0.041,0.02,0.084,0.029,0.123c0.055,0.205,0.117,0.399,0.182,0.59c0.018,0.05,0.033,0.102,0.053,0.15
	c0.002,0.01,0.006,0.018,0.01,0.027c0.258,0.693,0.592,1.285,1.002,1.776c0.002,0.001,0.002,0.001,0.002,0.003
	c0.105,0.125,0.219,0.242,0.336,0.356c0.018,0.018,0.035,0.036,0.055,0.054c0.119,0.112,0.244,0.219,0.377,0.319
	c0.01,0.008,0.021,0.015,0.031,0.022c0.863,0.65,1.984,1.043,3.359,1.178c0.002,0,0.002,0,0.002,0.001
	c0.361,0.036,0.738,0.056,1.135,0.056c0.002,0,0.004,0,0.004,0s0,0,0.002,0c1.938,0,2.732-0.295,4.413-0.295c1.421,0,4.3,0,4.3,0
	l0.152-3.198L37.03,137.302z M33.672,135.069c-0.012,0.066-0.027,0.125-0.039,0.188c-0.09,0.432-0.211,0.801-0.367,1.104
	c-0.045,0.085-0.09,0.17-0.141,0.245c-0.252,0.379-0.586,0.642-1,0.789s-0.914,0.222-1.504,0.222c-0.602,0-1.111-0.074-1.525-0.222
	c-0.414-0.147-0.75-0.41-1.009-0.789s-0.445-0.891-0.557-1.536c-0.113-0.646-0.168-1.466-0.168-2.462s0.055-1.817,0.168-2.462
	c0.111-0.646,0.295-1.154,0.547-1.525c0.061-0.088,0.125-0.17,0.193-0.244c0.004-0.004,0.008-0.01,0.012-0.014
	c0.035-0.039,0.078-0.07,0.117-0.106c0.049-0.044,0.096-0.089,0.148-0.128c0.16-0.117,0.334-0.211,0.529-0.276
	c0.414-0.14,0.922-0.21,1.525-0.21c0.451,0,0.85,0.039,1.195,0.118c0.115,0.026,0.225,0.057,0.328,0.092
	c0.209,0.071,0.398,0.172,0.566,0.302c0.164,0.128,0.309,0.283,0.434,0.467c0.057,0.083,0.109,0.176,0.158,0.273
	c0.16,0.313,0.281,0.699,0.367,1.154c0.008,0.033,0.016,0.063,0.021,0.098c0.004,0.018,0.006,0.037,0.008,0.055
	c0.107,0.637,0.161,1.438,0.161,2.407c0,0.933-0.049,1.709-0.149,2.334C33.686,134.983,33.68,135.028,33.672,135.069z"/>
<path fill="#FFFFFF" d="M60.526,119.548v46.535H18.726v-46.535H60.526z M63.476,116.599h-47.7v52.434h47.7V116.599z"/>
<path fill="#FFFFFF" d="M54.964,134.858c0,3.956-2.112,5.935-6.333,5.935c-2.09,0-3.674-0.487-4.754-1.462
	c-1.08-0.976-1.619-2.466-1.619-4.473v-10.143h3.533v10.102c0,0.967,0.225,1.669,0.674,2.104c0.449,0.436,1.17,0.652,2.166,0.652
	s1.715-0.217,2.156-0.652c0.443-0.435,0.664-1.137,0.664-2.104v-10.102h3.513V134.858z"/>
<path fill="#FFFFFF" d="M55.548,152.954c0.006,1.432-0.119,2.662-0.375,3.695c-0.256,1.031-0.662,1.883-1.221,2.551
	c-0.559,0.668-1.276,1.162-2.151,1.48c-0.875,0.32-1.93,0.482-3.164,0.486c-2.426,0.01-4.195-0.646-5.309-1.969
	c-1.113-1.32-1.676-3.385-1.686-6.189c-0.006-1.404,0.123-2.617,0.385-3.643c0.264-1.025,0.674-1.871,1.232-2.54
	s1.275-1.166,2.15-1.492c0.875-0.325,1.93-0.491,3.164-0.496s2.289,0.153,3.168,0.472c0.877,0.32,1.598,0.812,2.163,1.476
	c0.563,0.665,0.975,1.509,1.238,2.531S55.542,151.552,55.548,152.954z M51.844,152.97c-0.004-0.996-0.063-1.816-0.178-2.463
	c-0.113-0.645-0.299-1.152-0.553-1.522c-0.254-0.371-0.588-0.626-1.002-0.765s-0.922-0.207-1.525-0.205
	c-0.604,0.003-1.111,0.075-1.523,0.217c-0.414,0.143-0.746,0.399-0.996,0.771c-0.252,0.373-0.432,0.883-0.543,1.527
	c-0.109,0.646-0.162,1.467-0.158,2.463s0.063,1.816,0.178,2.461c0.115,0.646,0.303,1.156,0.564,1.535
	c0.26,0.377,0.598,0.639,1.012,0.785c0.414,0.145,0.924,0.217,1.525,0.215c0.59-0.002,1.092-0.078,1.504-0.227
	c0.414-0.148,0.746-0.414,0.996-0.793c0.252-0.379,0.432-0.893,0.541-1.539C51.795,154.786,51.848,153.966,51.844,152.97z"/>
<path fill="#FFFFFF" d="M37.877,157.817l-8.117,0.031l-0.014-3.596l6.686-0.025l-0.01-2.818l-6.686,0.025l-0.01-3.139l7.775-0.029
	l-0.074-3.134l-11.271,0.044l0.061,15.781l11.587-0.043L37.877,157.817z"/>
<path fill="#FA186B" d="M95.808,148.375v12.583h-3.547v-12.583h-4.48l0.084-3.199h12.359l0.084,3.199H95.808z"/>
<path fill="#FA186B" d="M79.97,152.71l4.84,8.248h-3.988l-2.432-4.502l-0.842-1.537h-0.063l-0.865,1.557l-2.373,4.482h-4.076
	l4.723-8.164l-4.592-7.618h4.176l2.154,3.936l0.873,1.515h0.063l0.852-1.515l2.18-3.936h3.998L79.97,152.71z"/>
<path fill="#FA186B" d="M81.149,140.499l-6.078-8.607l-0.939-1.41l-0.041,0.021l0.021,1.705v8.291h-3.133v-15.783h3.006l5.576,8.145
	l0.939,1.409l0.043-0.021l-0.043-1.684v-7.85h3.111v15.783H81.149L81.149,140.499z"/>
<path fill="#FA186B" d="M99.835,137.403H91.78l0.002-3.598h6.633v-2.818h-6.633l0.002-3.138h7.717l-0.063-3.134H88.253v15.783h11.5
	L99.835,137.403z"/>
<path fill="#FA186B" d="M69.503,116.599v2.949h35.771v46.535H69.503v2.949h38.719v-52.434H69.503z"/>
</svg>
